<?xml version="1.0" encoding="UTF-8" standalone="no"?>
<svg
   xmlns:dc="http://purl.org/dc/elements/1.1/"
   xmlns:cc="http://creativecommons.org/ns#"
   xmlns:rdf="http://www.w3.org/1999/02/22-rdf-syntax-ns#"
   xmlns:svg="http://www.w3.org/2000/svg"
   xmlns="http://www.w3.org/2000/svg"
   xmlns:sodipodi="http://sodipodi.sourceforge.net/DTD/sodipodi-0.dtd"
   xmlns:inkscape="http://www.inkscape.org/namespaces/inkscape"
   height="48px"
   viewBox="0 0 24 24"
   width="48px"
   fill="#000000"
   version="1.1"
   id="svg893"
   sodipodi:docname="pgpainless.svg"
   inkscape:version="1.0.2 (e86c870879, 2021-01-15)">
  <metadata
     id="metadata899">
    <rdf:RDF>
      <cc:Work
         rdf:about="">
        <dc:format>image/svg+xml</dc:format>
        <dc:type
           rdf:resource="http://purl.org/dc/dcmitype/StillImage" />
        <dc:title></dc:title>
      </cc:Work>
    </rdf:RDF>
  </metadata>
  <defs
     id="defs897" />
  <sodipodi:namedview
     pagecolor="#ffffff"
     bordercolor="#666666"
     borderopacity="1"
     objecttolerance="10"
     gridtolerance="10"
     guidetolerance="10"
     inkscape:pageopacity="0"
     inkscape:pageshadow="2"
     inkscape:window-width="1920"
     inkscape:window-height="1056"
     id="namedview895"
     showgrid="true"
     inkscape:zoom="17.895833"
     inkscape:cx="24"
     inkscape:cy="21.764843"
     inkscape:window-x="1920"
     inkscape:window-y="0"
     inkscape:window-maximized="1"
     inkscape:current-layer="svg893">
    <inkscape:grid
       type="xygrid"
       id="grid1629" />
  </sodipodi:namedview>
  <g
     fill="none"
     id="g889">
    <path
       d="M0 0h24v24H0V0z"
       id="path885" />
    <path
       d="M0 0h24v24H0V0z"
       opacity=".87"
       id="path887" />
  </g>
  <path
     d="M 18,8 H 17 V 6 C 17,3.24 14.76,1 12,1 9.24,1 7,3.24 7,6 V 8 H 6 C 4.9,8 4,8.9 4,10 v 10 c 0,1.1 0.9,2 2,2 h 12 c 1.1,0 2,-0.9 2,-2 V 10 C 20,8.9 19.1,8 18,8 Z M 9,6 c 0,-1.66 1.34,-3 3,-3 1.66,0 3,1.34 3,3 V 8 H 9 Z"
     id="path891"
     sodipodi:nodetypes="scssscsssssssssssccs" />
  <g
     style="fill:#ffffff"
     id="g1627"
     transform="matrix(0.93317811,0,0,0.93317811,2.6775507,5.7004657)">
    <g
       id="g1594">
      <rect
         fill="none"
         height="20"
         width="20"
         x="0"
         id="rect1592"
         y="0" />
    </g>
    <g
       id="g1608">
      <g
         id="g1596" />
      <g
         id="g1606">
        <path
           d="m 10,14 c 1.86,0 3.41,-1.28 3.86,-3 H 6.14 c 0.45,1.72 2,3 3.86,3 z"
           id="path1598" />
        <path
           d="M 9.99,3 C 6.13,3 3,6.14 3,10 3,13.86 6.13,17 9.99,17 13.86,17 17,13.86 17,10 17,6.14 13.86,3 9.99,3 Z m 0,13 C 6.69,16 4,13.31 4,10 4,6.69 6.69,4 9.99,4 13.31,4 16,6.69 16,10 c 0,3.31 -2.69,6 -6.01,6 z"
           id="path1600" />
        <circle
           cx="13"
           cy="8"
           r="1"
           id="circle1602" />
        <circle
           cx="7"
           cy="8"
           r="1"
           id="circle1604" />
      </g>
    </g>
  </g>
</svg>
